<?xml version="1.0"?>
<svg xmlns="http://www.w3.org/2000/svg" height="512px" viewBox="0 0 512 512" width="512px"><path d="m512 512v-47c0-57.898438-47.550781-105-106-105h-75v-15.316406c8.960938-8.792969 17.128906-18.476563 24.394531-28.960938 9.914063-14.304687 17.832031-29.65625 23.664063-45.722656h26.941406c24.8125 0 45-20.1875 45-45s-20.1875-45-45-45h-15v-30h90v-30h-90v-15c0-57.898438-47.101562-105-105-105h-60c-57.898438 0-105 47.101562-105 105v75h-15c-24.8125 0-45 20.1875-45 45s20.1875 45 45 45h26.941406c5.832032 16.066406 13.75 31.417969 23.660156 45.722656 7.269532 10.484375 15.4375 20.167969 24.398438 28.960938v15.316406h-75c-58.449219 0-106 47.101562-106 105v47zm-301-143.125c22.039062 14.484375 42.832031 21.214844 45 22.144531 3.277344-1.40625 22.332031-7.25 45-22.144531v1.582031l-33.945312 50.921875c-3.539063-.898437-7.242188-1.378906-11.054688-1.378906s-7.515625.480469-11.054688 1.378906l-33.945312-50.921875zm30 96.125c0-8.269531 6.730469-15 15-15s15 6.730469 15 15c0 8.738281-7.289062 17-15 17s-15-8.261719-15-17zm241 0v17h-61v-90.527344c34.746094 6.894532 61 37.238282 61 73.527344zm-91-75v92h-93.179688c2.039063-5.300781 3.179688-11.039062 3.179688-17 0-10.105469-3.351562-19.445312-8.996094-26.964844l32.023438-48.035156zm-60-150c-16.542969 0-30-13.46875-30-30.011719h59.792969c-.097657 2.015625-.230469 4.023438-.402344 6.023438-2.792969 13.667969-14.910156 23.988281-29.390625 23.988281zm90-15c0 8.269531-6.730469 15-15 15h-18.644531c1.292969-6.6875 2.242187-13.460938 2.847656-20.292969.515625-3.160156.796875-6.402343.796875-9.707031h15c8.269531 0 15 6.730469 15 15zm-270-120c0-41.355469 33.644531-75 75-75h60c41.355469 0 75 33.644531 75 75v15h-60v-60h-90v60h-60zm120 15h-30v-30h30zm90 30v30h-210v-30zm-209.390625 66.011719c-.171875-2-.304687-4.007813-.402344-6.023438h59.792969c0 16.542969-13.457031 30.011719-30 30.011719-14.480469 0-26.597656-10.320312-29.390625-23.988281zm-45.609375 23.988281c-8.269531 0-15-6.730469-15-15s6.730469-15 15-15h15c0 3.304688.28125 6.546875.796875 9.707031.605469 6.832031 1.554687 13.601563 2.847656 20.292969zm58.402344 27.644531c5.273437 1.523438 10.839844 2.355469 16.597656 2.355469 33.085938 0 60-26.925781 60-60.011719h30c0 33.085938 26.914062 60.011719 60 60.011719 5.757812 0 11.324219-.832031 16.597656-2.355469-17.152344 40.539063-49.722656 73.898438-91.597656 91.234375-41.875-17.335937-74.445312-50.695312-91.597656-91.234375zm23.570312 122.355469 32.023438 48.035156c-5.644532 7.519532-8.996094 16.859375-8.996094 26.964844 0 5.960938 1.140625 11.699219 3.179688 17h-93.179688v-92zm-157.972656 75c0-36.289062 26.253906-66.632812 61-73.527344v90.527344h-61zm0 0" fill="#34556e"/></svg>
